<?xml version="1.0" encoding="UTF-8"?>
<svg version="1.1" xmlns="http://www.w3.org/2000/svg" width="1024" height="1024">
<path d="M0 0 C337.92 0 675.84 0 1024 0 C1024 337.92 1024 675.84 1024 1024 C686.08 1024 348.16 1024 0 1024 C0 686.08 0 348.16 0 0 Z " fill="#090808" transform="translate(0,0)"/>
<path d="M0 0 C3.91082218 1.14065647 6.49763305 3.78369903 8.77246094 7.07739258 C9.27551758 7.99931396 9.77857422 8.92123535 10.296875 9.87109375 C10.86696289 10.91426758 11.43705078 11.95744141 12.02441406 13.03222656 C12.61448242 14.14823242 13.20455078 15.26423828 13.8125 16.4140625 C14.42577148 17.56229492 15.03904297 18.71052734 15.67089844 19.89355469 C22.37481943 32.6188946 27.62556454 45.92855731 32.0625 59.6015625 C33.53574379 57.39169681 34.73584979 55.36614355 35.91015625 53.01171875 C43.29287503 38.46351903 52.48386226 23.18773914 66.0625 13.6015625 C68.847577 12.83672128 71.25290971 12.95580989 74.0625 13.6015625 C77.0625 15.6640625 77.0625 15.6640625 79.0625 18.6015625 C79.5143857 22.64029091 79.52896453 24.84463741 77.375 28.33984375 C76.2303125 29.61408203 76.2303125 29.61408203 75.0625 30.9140625 C74.24136719 31.85765625 73.42023438 32.80125 72.57421875 33.7734375 C71.33091797 35.17335938 71.33091797 35.17335938 70.0625 36.6015625 C68.65302981 38.27768921 67.25638677 39.96471629 65.875 41.6640625 C64.98748047 42.73333984 64.98748047 42.73333984 64.08203125 43.82421875 C58.3214873 51.74635946 54.39635458 60.02592145 50.9375 69.1640625 C50.52113281 70.21658203 50.10476563 71.26910156 49.67578125 72.35351562 C44.2214213 86.58785624 41.47452707 101.18950602 39.8125 116.2890625 C39.7284491 117.0305957 39.64439819 117.77212891 39.55780029 118.53613281 C38.34687178 129.39660272 37.701239 140.17424724 37.6875 151.1015625 C37.68588867 152.30385498 37.68427734 153.50614746 37.68261719 154.74487305 C37.83761387 166.91469606 39.41654967 178.4959914 46.1875 188.8515625 C55.65829735 197.91058605 67.20002819 201.98737293 80.140625 201.8125 C101.16047805 200.29502398 118.63782113 184.62995127 132.0625 169.6015625 C134.96328907 166.06867581 137.55999727 162.42483056 140.0625 158.6015625 C140.72765625 157.60769531 141.3928125 156.61382812 142.078125 155.58984375 C156.54763799 133.14000776 162.29791624 107.80693791 164.765625 81.4609375 C164.93747314 79.69641235 164.93747314 79.69641235 165.11279297 77.89624023 C165.32486676 75.62194819 165.51249371 73.34520724 165.67236328 71.06665039 C166.46462474 62.4650503 166.46462474 62.4650503 169.97265625 59.3984375 C173.48260468 57.35725384 175.08323515 56.83957561 179.0625 57.6015625 C181.76240662 59.40150024 183.6043865 60.6853355 185.0625 63.6015625 C186.73950555 89.33397548 181.06914185 114.64537168 172.0625 138.6015625 C172.78050781 138.12847656 173.49851562 137.65539062 174.23828125 137.16796875 C191.93983053 125.85925794 218.35332837 111.09929961 240.0625 112.6015625 C244.01125513 115.06022135 245.73122408 116.58933053 247.1875 121.0390625 C247.06607863 124.49957143 246.62323649 126.37177394 244.62402344 129.18530273 C241.23018584 132.26342217 236.46696375 132.86374086 232.125 133.9140625 C202.93976386 141.72218081 177.13783673 156.02687478 155.0625 176.6015625 C153.77465517 177.71018439 152.48310538 178.8145201 151.1875 179.9140625 C141.91196931 188.02780955 133.61897663 196.87242804 126.0625 206.6015625 C125.27746094 207.58125 124.49242187 208.5609375 123.68359375 209.5703125 C118.71399724 215.92353638 114.99750328 222.09140705 112.0625 229.6015625 C111.629375 230.5709375 111.19625 231.5403125 110.75 232.5390625 C109.06507655 240.04463061 109.09301188 247.65578052 112.68359375 254.57421875 C117.98078588 262.36244174 126.61489528 267.08391041 135.66796875 269.21484375 C151.72345817 271.04395014 167.53161061 269.90988163 183.0625 265.6015625 C184.13113281 265.32441406 185.19976563 265.04726563 186.30078125 264.76171875 C209.37812067 257.98528755 229.47523279 241.38761643 245.375 223.8515625 C247.93875946 221.25535039 249.56596582 220.07068721 253.25 219.8515625 C257.52947431 220.6934263 259.36893058 221.15042668 262.0625 224.6015625 C263.12881675 227.85450346 262.99422772 230.31785182 262.0625 233.6015625 C251.57376697 251.0740654 231.28631041 264.50970632 214.0625 274.6015625 C214.63355469 274.82070313 215.20460938 275.03984375 215.79296875 275.265625 C257.31730153 291.50566612 257.31730153 291.50566612 265.0625 303.6015625 C265.59360343 306.6554072 265.68427339 308.60902795 264.0078125 311.28515625 C261.31987775 314.60133611 259.62350709 316.42586473 255.35546875 316.90625 C251.28686506 316.52979557 248.69972218 314.91890585 245.375 312.7265625 C244.04803751 311.89708582 242.71848208 311.07174659 241.38671875 310.25 C240.68595215 309.81655273 239.98518555 309.38310547 239.26318359 308.93652344 C227.04326302 301.52377375 214.99452142 295.86376383 201.0625 292.6015625 C200.11117188 292.35792969 199.15984375 292.11429687 198.1796875 291.86328125 C170.21951107 285.87181487 136.08558091 291.74636801 111.74023438 306.51025391 C101.42800141 313.2180073 94.3121568 322.4225503 90.7578125 334.17578125 C86.6044414 354.63930066 94.19363809 373.59370393 105.32275391 390.51806641 C112.04068535 400.14220437 120.20970102 409.69905549 129.25 417.2265625 C130.178125 418.0103125 131.10625 418.7940625 132.0625 419.6015625 C132.0625 420.2615625 132.0625 420.9215625 132.0625 421.6015625 C132.62582031 421.84261719 133.18914062 422.08367187 133.76953125 422.33203125 C136.53154434 423.86125485 138.47014126 425.72725922 140.75 427.9140625 C147.432765 434.09028814 154.60884692 439.51730006 161.88818359 444.96679688 C163.97379118 446.53486653 166.04534167 448.11967038 168.11328125 449.7109375 C178.51822949 457.68071237 189.37115201 464.78459178 200.47265625 471.73828125 C201.94025391 472.66060547 201.94025391 472.66060547 203.4375 473.6015625 C204.27023437 474.1171875 205.10296875 474.6328125 205.9609375 475.1640625 C207.9595127 476.53111766 209.55422942 477.70789786 211.0625 479.6015625 C211.5882966 484.25861809 211.7559097 486.46238943 209.3125 490.4765625 C205.79616834 493.7975424 205.79616834 493.7975424 203.0625 494.6015625 C191.18648509 493.40278066 179.95441158 483.31604825 170.29003906 476.74121094 C168.06922462 475.231135 165.84354669 473.72844813 163.6171875 472.2265625 C151.31160273 463.89907993 139.45772305 455.1514053 128.0625 445.6015625 C127.53962402 445.16505371 127.01674805 444.72854492 126.47802734 444.27880859 C110.31243831 430.74782397 95.36961282 416.03289878 80.55395508 401.05639648 C74.89943554 395.35106143 69.24861356 389.7386593 63.0625 384.6015625 C62.47710449 384.10962402 61.89170898 383.61768555 61.28857422 383.11083984 C38.49336406 364.13273724 11.58198109 347.12404954 -17.9375 341.6015625 C-19.28328125 341.32699219 -19.28328125 341.32699219 -20.65625 341.046875 C-43.52113332 337.94378369 -64.01042026 343.27620583 -82.8125 356.4765625 C-95.60031485 366.58785796 -107.60755898 378.53357991 -115.9375 392.6015625 C-116.32276855 393.24464355 -116.70803711 393.88772461 -117.10498047 394.55029297 C-123.01652056 404.50103483 -128.00956004 414.74000402 -132.45092773 425.42944336 C-135.32717762 432.10927848 -135.32717762 432.10927848 -138.54296875 434.703125 C-141.62511407 435.85955799 -143.66914595 436.07819747 -146.9375 435.6015625 C-149.63740662 433.80162476 -151.4793865 432.5177895 -152.9375 429.6015625 C-152.94421386 423.18982966 -151.14106368 417.82853541 -148.4375 412.1015625 C-147.90564087 410.94587769 -147.90564087 410.94587769 -147.36303711 409.7668457 C-141.23034301 396.61271954 -134.47785677 384.34599063 -125.9375 372.6015625 C-126.81873535 372.74231201 -127.6999707 372.88306152 -128.60791016 373.02807617 C-137.80828704 374.38947275 -146.79188863 374.94482077 -156.08886719 374.91723633 C-158.30453724 374.91407387 -160.51886799 374.93766989 -162.734375 374.96289062 C-170.29976472 374.99871931 -177.68617467 374.58235293 -185.1640625 373.39453125 C-185.85648041 373.29481522 -186.54889832 373.19509918 -187.26229858 373.09236145 C-192.53096435 372.14657402 -195.20728643 370.23952804 -198.9375 366.6015625 C-200.36412219 363.74831813 -200.24783868 361.76701701 -199.9375 358.6015625 C-198.13756226 355.90165588 -196.853727 354.059676 -193.9375 352.6015625 C-189.52920313 352.2263883 -186.30140031 352.7347446 -182.09765625 354.09375 C-175.16626185 356.03060691 -168.47014904 356.05499876 -161.3125 355.9765625 C-160.65142242 355.97224213 -159.99034485 355.96792175 -159.30923462 355.96347046 C-148.84502127 355.88335454 -139.0819656 355.21043634 -128.9375 352.6015625 C-127.87402344 352.32820068 -127.87402344 352.32820068 -126.7890625 352.04931641 C-103.22712719 345.86430839 -82.09455208 335.2079383 -67.9375 314.6015625 C-62.66882884 305.49279023 -60.00190254 296.74938154 -62.515625 286.16796875 C-68.17279233 271.74219207 -83.05104176 261.98420464 -96.52636719 255.63964844 C-112.93399885 248.57552836 -130.43556244 244.07181244 -148.0625 241.4765625 C-149.16464844 241.30769531 -150.26679688 241.13882813 -151.40234375 240.96484375 C-162.89550912 239.23337044 -174.05454917 238.38022568 -185.6875 238.3515625 C-186.36403625 238.34922607 -187.04057251 238.34688965 -187.73760986 238.34448242 C-198.43050537 238.33063274 -208.78423163 239.16627038 -219.3359375 240.9453125 C-225.02660345 241.85502433 -230.71790667 242.75760069 -235.9375 240.0390625 C-238.57817441 236.82074057 -238.9375 234.74225172 -238.9375 230.6015625 C-237.63825196 227.23880286 -236.49589212 225.94371879 -233.42578125 224.0625 C-229.04254914 222.22674546 -224.87566908 221.59602028 -220.1875 220.9765625 C-219.34445313 220.85539063 -218.50140625 220.73421875 -217.6328125 220.609375 C-207.53542921 219.18894799 -197.50097351 218.41664262 -187.3125 218.0390625 C-185.66314453 217.97428711 -185.66314453 217.97428711 -183.98046875 217.90820312 C-181.29957118 217.80329844 -178.61859999 217.70113524 -175.9375 217.6015625 C-176.43975098 217.12549561 -176.94200195 216.64942871 -177.45947266 216.15893555 C-189.32924544 204.82353252 -199.80446833 193.25330977 -208.9375 179.6015625 C-209.35547852 178.98603516 -209.77345703 178.37050781 -210.20410156 177.73632812 C-214.23436367 171.72009005 -217.35323296 166.9376333 -215.9375 159.6015625 C-214.375 156.6640625 -214.375 156.6640625 -211.9375 154.6015625 C-208.26907413 153.53438407 -206.0056713 153.23682108 -202.375 154.4765625 C-198.72951077 157.65468132 -196.51207997 161.53827982 -193.9375 165.6015625 C-177.45549979 190.27782747 -158.43143831 209.63369339 -130.9375 221.6015625 C-130.30553711 221.87693848 -129.67357422 222.15231445 -129.02246094 222.43603516 C-108.62809162 231.10703943 -83.04747262 237.94648428 -61.3125 230.6015625 C-54.95823425 227.58264485 -50.51325607 223.38662605 -47.80078125 216.87109375 C-44.6741489 205.02950427 -46.2560779 194.19325361 -52.33203125 183.73828125 C-57.23211081 175.81805097 -62.53207795 168.18217446 -67.9375 160.6015625 C-68.85223029 159.30385588 -69.76633824 158.00571024 -70.6796875 156.70703125 C-84.75328974 136.7710011 -99.31168302 116.44128559 -118.9375 101.6015625 C-119.82050781 100.92609375 -120.70351563 100.250625 -121.61328125 99.5546875 C-131.26921004 92.34418207 -141.41438044 86.13531075 -152.28125 80.92578125 C-160.78039595 76.68870702 -160.78039595 76.68870702 -162.9375 72.6015625 C-163.57933966 68.18891482 -163.48909864 66.34784301 -160.8125 62.7265625 C-157.53074768 60.30091948 -155.98265846 59.82736113 -151.9375 59.6015625 C-149.26229081 60.45937414 -146.95285756 61.34908358 -144.4375 62.5390625 C-143.73898926 62.8589917 -143.04047852 63.1789209 -142.32080078 63.50854492 C-127.81725498 70.28091604 -113.88901888 78.89199363 -101.9375 89.6015625 C-101.9375 90.2615625 -101.9375 90.9215625 -101.9375 91.6015625 C-101.2775 91.6015625 -100.6175 91.6015625 -99.9375 91.6015625 C-100.2675 90.9415625 -100.5975 90.2815625 -100.9375 89.6015625 C-102.29123269 79.82063176 -102.23237225 70.02936609 -102.28759766 60.17163086 C-102.3042411 57.99443943 -102.33163949 55.81730445 -102.36962891 53.64038086 C-102.42438028 50.47741808 -102.44625638 47.31571632 -102.4609375 44.15234375 C-102.48360687 43.18347733 -102.50627625 42.2146109 -102.52963257 41.21638489 C-102.51576307 36.78076898 -102.42469099 33.58164429 -99.62744141 30.00463867 C-96.3075358 27.03877999 -94.35358484 26.6015625 -89.9375 26.6015625 C-86.53941974 27.70364258 -85.99018083 28.52254126 -83.9375 31.6015625 C-83.73126741 34.42310646 -83.63645879 37.15372508 -83.62890625 39.9765625 C-83.60368087 41.70312742 -83.57828413 43.42968985 -83.55273438 45.15625 C-83.52440269 47.8518765 -83.50038504 50.54745702 -83.48120117 53.24316406 C-83.12199634 95.54249352 -68.77248145 130.36669481 -39.1875 160.6640625 C-27.78556578 171.940155 -27.78556578 171.940155 -13.0625 177.0390625 C-6.73591427 176.7448027 -1.05872997 174.18574983 3.3125 169.6015625 C9.82655566 161.12609229 12.59054106 149.82637416 15.0625 139.6015625 C15.339729 138.46267578 15.339729 138.46267578 15.62255859 137.30078125 C25.35235324 95.97592946 13.55853328 54.62268616 -7.62109375 18.75 C-11.99178196 11.34583131 -11.99178196 11.34583131 -10.9375 6.6015625 C-7.92399872 1.5162791 -5.69957911 -0.06894652 0 0 Z " fill="#F9F9F9" transform="translate(421.9375,94.3984375)"/>
<path d="M0 0 C1.41526978 0.02368652 1.41526978 0.02368652 2.85913086 0.04785156 C26.26802066 0.61699159 45.30874698 8.51537228 62.55566406 24.03759766 C65.74540818 26.86867644 69.08881815 29.51658161 72.40625 32.1953125 C74.16270752 33.63664088 75.89293548 35.1106018 77.59375 36.6171875 C100.61186562 56.65404116 132.0651087 61.74014947 161.3125 66.1875 C161.99729431 66.29263916 162.68208862 66.39777832 163.38763428 66.50610352 C190.22899299 70.58351712 217.48172598 71.73175189 243.69604492 64.07177734 C249.11753152 62.52818014 254.42872891 61.10396628 260.0625 62.375 C262.99673195 64.17146854 264.53455355 65.3191071 266.0625 68.375 C266.42420713 72.20909561 266.57291046 74.55138312 264.515625 77.87109375 C261.53746643 80.9109021 258.32510082 82.42615241 254.5 84.125 C247.09783126 87.62140065 241.10538747 91.80529132 235.0625 97.375 C234.32386719 98.01050781 233.58523438 98.64601563 232.82421875 99.30078125 C224.2758216 107.07644194 219.35228965 118.09228828 218.7265625 129.6171875 C218.69703711 131.16123096 218.68497143 132.70567634 218.6875 134.25 C218.68556641 135.53922363 218.68556641 135.53922363 218.68359375 136.85449219 C218.79420052 143.92578389 219.83298002 150.6730113 221.0625 157.625 C222.85843506 168.01874781 223.53544182 178.16560761 223.625 188.6875 C223.63926025 189.38725952 223.65352051 190.08701904 223.66821289 190.8079834 C223.70378427 192.80528091 223.69836827 194.80317914 223.69140625 196.80078125 C223.6924939 198.52421753 223.6924939 198.52421753 223.69360352 200.2824707 C222.87206886 204.30814941 221.19990534 205.81204088 218.0625 208.375 C214.97445951 209.2134056 212.1887248 209.01777519 209.0625 208.375 C206.03034325 206.17668636 205.24595602 204.92536806 204.0625 201.375 C203.9085737 198.57339498 203.80511955 195.79201575 203.74609375 192.98828125 C203.72531265 192.17127243 203.70453156 191.35426361 203.68312073 190.51249695 C203.61776921 187.90424966 203.55880727 185.29590225 203.5 182.6875 C203.45680108 180.91860946 203.41318635 179.14972903 203.36914062 177.38085938 C203.26210257 173.04567537 203.16079456 168.71039071 203.0625 164.375 C202.4025 164.375 201.7425 164.375 201.0625 164.375 C200.80984375 164.93960938 200.5571875 165.50421875 200.296875 166.0859375 C194.96578623 175.97207047 185.23850233 182.40384129 176.0625 188.375 C174.74958984 189.23544922 174.74958984 189.23544922 173.41015625 190.11328125 C168.88697172 192.85811973 165.48067716 194.31276143 160.0625 193.375 C157.30920979 191.57937595 155.53622539 190.32245078 154.0625 187.375 C153.5812798 184.41893305 153.55132266 182.30727016 155.015625 179.63671875 C158.64070891 174.93869333 162.98591566 172.63872561 168.1875 169.953125 C186.07133036 160.13645725 191.5630767 142.45903787 197.375 124.0625 C201.8165968 110.42231344 206.58565638 97.62266266 217.0625 87.375 C189.07616125 88.49445355 162.49997569 94.08497438 141.0625 113.375 C140.30582031 114.01566406 139.54914063 114.65632812 138.76953125 115.31640625 C127.45840352 125.57624156 121.91651829 140.4931508 116.04345703 154.2421875 C108.53953183 171.8046851 98.633521 193.05549802 80.0625 201.375 C76.9375 202.125 76.9375 202.125 74.0625 201.375 C70.59308556 198.5899196 68.43820345 195.73331248 67.25 191.4375 C68.73728732 185.83157086 73.07931468 182.20590502 77.25 178.35546875 C87.31933044 168.93295294 92.63560282 156.62356193 98.22021484 144.23730469 C99.62650939 141.12796707 101.06589188 138.0340988 102.5 134.9375 C103.35449753 133.08348579 104.20879712 131.22938025 105.0625 129.375 C104.54945313 129.61734375 104.03640625 129.8596875 103.5078125 130.109375 C89.38377021 136.29161573 75.4955878 137.78129258 60.25 137.9375 C59.53696716 137.9521228 58.82393433 137.96674561 58.08929443 137.98181152 C56.03115104 138.01746524 53.97632198 138.01661321 51.91796875 138.00390625 C50.71809326 138.00463135 49.51821777 138.00535645 48.28198242 138.00610352 C44.16546188 137.19915686 42.67724559 135.5794606 40.0625 132.375 C39.3984375 130.3125 39.3984375 130.3125 39.4375 128.375 C39.42460937 127.735625 39.41171875 127.09625 39.3984375 126.4375 C40.55698886 122.83917577 41.95266989 121.56729862 45.0625 119.375 C49.16388402 118.74238974 53.23366303 118.87727922 57.375 118.9375 C84.88398961 118.58216321 106.43283436 108.59480643 129.79711914 95.06811523 C136.426823 91.23186256 143.1782609 87.73256044 150.0625 84.375 C149.21244385 84.21942627 148.3623877 84.06385254 147.48657227 83.90356445 C123.10745353 79.407855 101.42545438 73.47898087 78.63354492 63.41894531 C68.06508705 59.12773595 57.35968399 61.32581563 47.0625 65.375 C35.85201567 70.17222201 26.06666654 76.64225429 16.65234375 84.34765625 C13.3778454 87.01646704 11.63012315 88.27879269 7.375 89 C3.5345605 88.27538877 1.80511526 87.11761526 -0.9375 84.375 C-2.34750664 81.55498673 -2.18298451 79.50492745 -1.9375 76.375 C0.32793803 71.38603903 4.00318185 68.76415721 8.3125 65.625 C9.02124268 65.10276855 9.72998535 64.58053711 10.46020508 64.04248047 C38.1864679 43.91317058 38.1864679 43.91317058 54.0625 43.375 C54.0625 42.715 54.0625 42.055 54.0625 41.375 C53.52367187 41.14167969 52.98484375 40.90835938 52.4296875 40.66796875 C49.99519864 39.33823968 47.94543433 37.7481566 45.80004883 35.99829102 C31.86893618 24.67412087 17.45628858 19.02502681 -0.52148438 18.84765625 C-8.99453828 18.63814074 -8.99453828 18.63814074 -12.9375 15.375 C-14.08743366 13.07513269 -14.1691929 11.56030912 -14.25 9 C-14.28738281 8.22914063 -14.32476562 7.45828125 -14.36328125 6.6640625 C-13.9375 4.375 -13.9375 4.375 -12.5390625 2.109375 C-8.52213092 -0.56857939 -4.71738869 -0.13427338 0 0 Z " fill="#F8F8F8" transform="translate(380.9375,727.625)"/>
<path d="M0 0 C9.45693657 7.86070206 15.10217152 17.4277671 16.25390625 29.70703125 C16.78044256 42.66661848 12.64214872 53.3873426 4 63 C-4.49217195 71.34984504 -14.28533776 75.45119678 -26.125 75.5 C-39.3694763 75.22657976 -50.43057287 71.14956284 -59.8125 61.375 C-67.7672116 51.54182638 -71.20378872 39.50893493 -70 27 C-67.38835646 13.60908886 -60.86601933 4.19274303 -49.609375 -3.41015625 C-33.85040392 -13.01180479 -14.55249089 -10.61312234 0 0 Z " fill="#0A0A0A" transform="translate(471,332)"/>
<path d="M0 0 C5.90841959 2.31799433 10.80902458 5.46897594 14 11 C15.29109386 18.90401366 10.24970802 25.79256133 6 32 C3.14422039 35.80078304 0.12360049 39.41735687 -3 43 C-3.721875 43.84433594 -4.44375 44.68867187 -5.1875 45.55859375 C-25.02396284 68.26425925 -25.02396284 68.26425925 -37.8125 69.3125 C-42.21597578 69.23978205 -44.63091573 67.90966369 -48 65 C-51.55795677 60.97389102 -52.84117192 57.58442371 -52.56640625 52.29296875 C-51.0030817 45.96419973 -45.1847504 42.0805682 -40.25 38.3125 C-30.30435637 30.5485785 -23.27382143 20.43404497 -16.79125977 9.73657227 C-12.63986669 2.99500052 -8.57437195 -1.76395845 0 0 Z " fill="#F9F8F8" transform="translate(704,731)"/>
<path d="M0 0 C11.73540934 11.08344215 13.8373208 36.06857359 14.50390625 51.21875 C14.55119677 53.02066488 14.59158319 54.82277444 14.625 56.625 C14.65118408 57.47449219 14.67736816 58.32398438 14.7043457 59.19921875 C14.71895608 64.64510064 13.98583732 67.87794283 10.25 72.125 C5.80830881 75.2422924 0.43852961 74.6921672 -4.75 74.125 C-9.12011966 72.91652147 -12.62043102 71.68551993 -15.33251953 67.9387207 C-16.98114181 64.66617992 -17.18540423 62.39331584 -17.3046875 58.7421875 C-17.35963379 57.50090088 -17.41458008 56.25961426 -17.47119141 54.98071289 C-17.52194824 53.66707764 -17.57270508 52.35344238 -17.625 51 C-18.13748672 40.21132688 -19.45626526 30.24938319 -22.7265625 19.91015625 C-24.00153053 15.19472106 -24.47218108 11.14710703 -22.8125 6.5 C-16.75059291 -0.48037786 -8.75620385 -2.78606486 0 0 Z " fill="#F8F8F7" transform="translate(711.75,650.875)"/>
<path d="M0 0 C5.1933581 2.62106101 9.45359197 5.80009977 13.8125 9.625 C14.4206958 10.15496582 15.0288916 10.68493164 15.65551758 11.23095703 C43.83984459 36.0087956 43.83984459 36.0087956 45.5 48.875 C45.30170842 53.65202448 43.23930035 56.61501683 40 60 C35.81551698 63.70897358 32.64268259 64.4542933 27.24609375 64.53125 C21.50200777 63.1726488 18.23623122 57.98841706 14.875 53.5 C10.33817444 47.57334753 5.52556871 42.05292347 0.41015625 36.62109375 C-2 34 -2 34 -4.06640625 31.37890625 C-5.90477349 29.11715746 -7.76106856 27.3541151 -10 25.5 C-17.73796957 18.80145917 -17.73796957 18.80145917 -18.5 13.5625 C-17.72508341 8.04121931 -15.40770062 5.21574144 -11.25 1.625 C-7.42557225 -0.28721387 -4.14887324 -0.99164633 0 0 Z " fill="#F8F8F8" transform="translate(655,583)"/>
<path d="M0 0 C0.66 0.33 1.32 0.66 2 1 C-5.26 8.26 -12.52 15.52 -20 23 C-20.33 22.01 -20.66 21.02 -21 20 C-17.87904935 16.85012694 -14.75257094 13.70579867 -11.625 10.5625 C-10.73554687 9.66466797 -9.84609375 8.76683594 -8.9296875 7.84179688 C-7.65351562 6.56079102 -7.65351562 6.56079102 -6.3515625 5.25390625 C-5.56604004 4.46314697 -4.78051758 3.6723877 -3.97119141 2.85766602 C-2 1 -2 1 0 0 Z " fill="#151514" transform="translate(577,270)"/>
<path d="M0 0 C0.99 0.33 1.98 0.66 3 1 C1.61392377 2.46761013 0.21568805 3.92374189 -1.1875 5.375 C-1.96480469 6.18710937 -2.74210938 6.99921875 -3.54296875 7.8359375 C-5.987055 9.98859852 -7.92616557 11.00632706 -11 12 C-7.49102731 7.81576108 -3.91939465 3.80411834 0 0 Z " fill="#151414" transform="translate(619,821)"/>
<path d="M0 0 C0.66 0.66 1.32 1.32 2 2 C0.42982807 3.36940568 -1.15665391 4.72012895 -2.75 6.0625 C-3.63171875 6.81660156 -4.5134375 7.57070313 -5.421875 8.34765625 C-6.27265625 8.89292969 -7.1234375 9.43820312 -8 10 C-9.32 9.67 -10.64 9.34 -12 9 C-8.04 6.03 -4.08 3.06 0 0 Z " fill="#111111" transform="translate(404,806)"/>
<path d="M0 0 C0.66 0.33 1.32 0.66 2 1 C0.87895467 2.31587941 -0.24696965 3.62760353 -1.375 4.9375 C-2.00148438 5.66839844 -2.62796875 6.39929688 -3.2734375 7.15234375 C-5 9 -5 9 -7 10 C-6.42424336 6.64749299 -5.40693737 5.06181371 -2.9375 2.75 C-2.38964844 2.22921875 -1.84179688 1.7084375 -1.27734375 1.171875 C-0.64505859 0.59179688 -0.64505859 0.59179688 0 0 Z " fill="#171717" transform="translate(528,404)"/>
<path d="M0 0 C0.33 0 0.66 0 1 0 C1.33 3.63 1.66 7.26 2 11 C0 11 0 11 -2.125 9.125 C-4 7 -4 7 -4 5 C-3.01 5 -2.02 5 -1 5 C-0.67 3.35 -0.34 1.7 0 0 Z " fill="#2E2D2D" transform="translate(320,175)"/>
<path d="M0 0 C0.33 0.99 0.66 1.98 1 3 C-0.43359375 5.04296875 -0.43359375 5.04296875 -2.4375 7.1875 C-3.09621094 7.90292969 -3.75492187 8.61835938 -4.43359375 9.35546875 C-4.95050781 9.89816406 -5.46742188 10.44085938 -6 11 C-6.66 10.67 -7.32 10.34 -8 10 C-5.36 6.7 -2.72 3.4 0 0 Z " fill="#201F1F" transform="translate(500,120)"/>
<path d="M0 0 C0 3 0 3 -1.3125 4.38671875 C-2.875 5.59114583 -4.4375 6.79557292 -6 8 C-6 5 -6 5 -4.6875 3.61328125 C-3.125 2.40885417 -1.5625 1.20442708 0 0 Z " fill="#171616" transform="translate(671,342)"/>
<path d="M0 0 C-0.33 1.32 -0.66 2.64 -1 4 C-1.99 4 -2.98 4 -4 4 C-4.33 4.66 -4.66 5.32 -5 6 C-5.99 5.34 -6.98 4.68 -8 4 C-7.01 4 -6.02 4 -5 4 C-4.67 3.01 -4.34 2.02 -4 1 C-2 0 -2 0 0 0 Z " fill="#282728" transform="translate(486,857)"/>
<path d="M0 0 C-1.32 1.32 -2.64 2.64 -4 4 C-4.66 3.34 -5.32 2.68 -6 2 C-7.31747324 1.30251417 -8.64914193 0.63040043 -10 0 C-2.25 -1.125 -2.25 -1.125 0 0 Z " fill="#2A2929" transform="translate(297,467)"/>
</svg>
